<mxfile host="app.diagrams.net" agent="Mozilla/5.0 (Windows NT 10.0; Win64; x64) AppleWebKit/537.36 (KHTML, like Gecko) Chrome/136.0.0.0 Safari/537.36" version="26.2.14">
  <diagram name="第 1 页" id="Tb1iGebSN1QO1hjk4l5D">
    <mxGraphModel dx="1213" dy="730" grid="1" gridSize="10" guides="1" tooltips="1" connect="1" arrows="1" fold="1" page="1" pageScale="1" pageWidth="827" pageHeight="1169" math="0" shadow="0">
      <root>
        <mxCell id="0" />
        <mxCell id="1" parent="0" />
        <mxCell id="mj_Q1BmfQWoBCq-6HT56-1" value="" style="rounded=0;whiteSpace=wrap;html=1;fillColor=#fff2cc;strokeColor=#d6b656;fontSize=16;" vertex="1" parent="1">
          <mxGeometry x="200" y="120" width="640" height="120" as="geometry" />
        </mxCell>
        <mxCell id="mj_Q1BmfQWoBCq-6HT56-2" value="&lt;font style=&quot;vertical-align: inherit;&quot; class=&quot;notranslate fyzs-translate-target fyzs-translate-target-wrapper&quot;&gt;&lt;font style=&quot;vertical-align: inherit;&quot; class=&quot;notranslate fyzs-translate-target fyzs-translate-target-box&quot;&gt;&lt;font style=&quot;vertical-align: inherit;&quot; title=&quot;Text&quot; class=&quot;notranslate fyzs-translate-target fyzs-translate-target-text&quot;&gt;访问层&lt;/font&gt;&lt;/font&gt;&lt;/font&gt;" style="text;html=1;align=center;verticalAlign=middle;resizable=0;points=[];autosize=1;strokeColor=none;fillColor=none;fontSize=16;" vertex="1" parent="1">
          <mxGeometry x="95" y="170" width="70" height="30" as="geometry" />
        </mxCell>
        <mxCell id="mj_Q1BmfQWoBCq-6HT56-3" value="&lt;font style=&quot;vertical-align: inherit;&quot; class=&quot;notranslate fyzs-translate-target fyzs-translate-target-wrapper&quot;&gt;&lt;font style=&quot;vertical-align: inherit;&quot; class=&quot;notranslate fyzs-translate-target fyzs-translate-target-box&quot;&gt;&lt;font style=&quot;vertical-align: inherit;&quot; title=&quot;s&quot; class=&quot;notranslate fyzs-translate-target fyzs-translate-target-text&quot;&gt;手机&lt;/font&gt;&lt;/font&gt;&lt;/font&gt;&lt;div&gt;&lt;font style=&quot;vertical-align: inherit;&quot; class=&quot;notranslate fyzs-translate-target fyzs-translate-target-wrapper&quot;&gt;&lt;font style=&quot;vertical-align: inherit;&quot; class=&quot;notranslate fyzs-translate-target fyzs-translate-target-box&quot;&gt;&lt;font style=&quot;vertical-align: inherit;&quot; title=&quot;s&quot; class=&quot;notranslate fyzs-translate-target fyzs-translate-target-text&quot;&gt;Vue3+Ant&lt;/font&gt;&lt;/font&gt;&lt;/font&gt;&lt;/div&gt;" style="rounded=0;whiteSpace=wrap;html=1;fillColor=#fff2cc;strokeColor=#d6b656;fontSize=16;" vertex="1" parent="1">
          <mxGeometry x="240" y="150" width="120" height="60" as="geometry" />
        </mxCell>
        <mxCell id="mj_Q1BmfQWoBCq-6HT56-4" value="&lt;font style=&quot;vertical-align: inherit;&quot; class=&quot;notranslate fyzs-translate-target fyzs-translate-target-wrapper&quot;&gt;&lt;font style=&quot;vertical-align: inherit;&quot; class=&quot;notranslate fyzs-translate-target fyzs-translate-target-box&quot;&gt;&lt;font style=&quot;vertical-align: inherit;&quot; title=&quot;d&quot; class=&quot;notranslate fyzs-translate-target fyzs-translate-target-text&quot;&gt;电脑&lt;/font&gt;&lt;/font&gt;&lt;/font&gt;&lt;div&gt;&lt;font style=&quot;vertical-align: inherit;&quot; class=&quot;notranslate fyzs-translate-target fyzs-translate-target-wrapper&quot;&gt;&lt;font style=&quot;vertical-align: inherit;&quot; class=&quot;notranslate fyzs-translate-target fyzs-translate-target-box&quot;&gt;&lt;font style=&quot;vertical-align: inherit;&quot; title=&quot;d&quot; class=&quot;notranslate fyzs-translate-target fyzs-translate-target-text&quot;&gt;Vue3+Ant&lt;/font&gt;&lt;/font&gt;&lt;/font&gt;&lt;/div&gt;" style="rounded=0;whiteSpace=wrap;html=1;fillColor=#fff2cc;strokeColor=#d6b656;fontSize=16;" vertex="1" parent="1">
          <mxGeometry x="450" y="150" width="120" height="60" as="geometry" />
        </mxCell>
        <mxCell id="mj_Q1BmfQWoBCq-6HT56-5" value="&lt;font style=&quot;vertical-align: inherit;&quot; class=&quot;notranslate fyzs-translate-target fyzs-translate-target-wrapper&quot;&gt;&lt;font style=&quot;vertical-align: inherit;&quot; class=&quot;notranslate fyzs-translate-target fyzs-translate-target-box&quot;&gt;&lt;font style=&quot;vertical-align: inherit;&quot; title=&quot;k&quot; class=&quot;notranslate fyzs-translate-target fyzs-translate-target-text&quot;&gt;开放接口 HTTP&lt;/font&gt;&lt;/font&gt;&lt;/font&gt;" style="rounded=0;whiteSpace=wrap;html=1;fillColor=#e3c800;strokeColor=#B09500;fontColor=#000000;fontSize=16;" vertex="1" parent="1">
          <mxGeometry x="650" y="150" width="120" height="60" as="geometry" />
        </mxCell>
        <mxCell id="mj_Q1BmfQWoBCq-6HT56-6" value="&lt;font style=&quot;vertical-align: inherit;&quot; class=&quot;notranslate fyzs-translate-target fyzs-translate-target-wrapper&quot;&gt;&lt;font style=&quot;vertical-align: inherit;&quot; class=&quot;notranslate fyzs-translate-target fyzs-translate-target-box&quot;&gt;&lt;font style=&quot;vertical-align: inherit;&quot; title=&quot;l&quot; class=&quot;notranslate fyzs-translate-target fyzs-translate-target-text&quot;&gt;流量清洗防护&lt;/font&gt;&lt;/font&gt;&lt;/font&gt;&lt;div&gt;&lt;font style=&quot;vertical-align: inherit;&quot; class=&quot;notranslate fyzs-translate-target fyzs-translate-target-wrapper&quot;&gt;&lt;font style=&quot;vertical-align: inherit;&quot; class=&quot;notranslate fyzs-translate-target fyzs-translate-target-box&quot;&gt;&lt;font style=&quot;vertical-align: inherit;&quot; title=&quot;l&quot; class=&quot;notranslate fyzs-translate-target fyzs-translate-target-text&quot;&gt;（阿里云高防DDOS）&lt;/font&gt;&lt;/font&gt;&lt;/font&gt;&lt;/div&gt;" style="rounded=0;whiteSpace=wrap;html=1;fillColor=#fff2cc;strokeColor=#d6b656;fontSize=16;" vertex="1" parent="1">
          <mxGeometry x="200" y="270" width="240" height="80" as="geometry" />
        </mxCell>
        <mxCell id="mj_Q1BmfQWoBCq-6HT56-7" value="&lt;font style=&quot;vertical-align: inherit;&quot; class=&quot;notranslate fyzs-translate-target fyzs-translate-target-wrapper&quot;&gt;&lt;font style=&quot;vertical-align: inherit;&quot; class=&quot;notranslate fyzs-translate-target fyzs-translate-target-box&quot;&gt;&lt;font style=&quot;vertical-align: inherit;&quot; title=&quot;w&quot; class=&quot;notranslate fyzs-translate-target fyzs-translate-target-text&quot;&gt;网关&lt;/font&gt;&lt;/font&gt;&lt;/font&gt;&lt;div&gt;&lt;font style=&quot;vertical-align: inherit;&quot; class=&quot;notranslate fyzs-translate-target fyzs-translate-target-wrapper&quot;&gt;&lt;font style=&quot;vertical-align: inherit;&quot; class=&quot;notranslate fyzs-translate-target fyzs-translate-target-box&quot;&gt;&lt;font style=&quot;vertical-align: inherit;&quot; title=&quot;w&quot; class=&quot;notranslate fyzs-translate-target fyzs-translate-target-text&quot;&gt;Nginx+LVS&lt;/font&gt;&lt;/font&gt;&lt;/font&gt;&lt;/div&gt;" style="rounded=0;whiteSpace=wrap;html=1;fillColor=#fff2cc;strokeColor=#d6b656;fontSize=16;" vertex="1" parent="1">
          <mxGeometry x="450" y="270" width="390" height="80" as="geometry" />
        </mxCell>
        <mxCell id="mj_Q1BmfQWoBCq-6HT56-8" value="&lt;font style=&quot;vertical-align: inherit;&quot; class=&quot;notranslate fyzs-translate-target fyzs-translate-target-wrapper&quot;&gt;&lt;font style=&quot;vertical-align: inherit;&quot; class=&quot;notranslate fyzs-translate-target fyzs-translate-target-box&quot;&gt;&lt;font style=&quot;vertical-align: inherit;&quot; title=&quot;Text&quot; class=&quot;notranslate fyzs-translate-target fyzs-translate-target-text&quot;&gt;网关&lt;/font&gt;&lt;/font&gt;&lt;/font&gt;" style="text;html=1;align=center;verticalAlign=middle;resizable=0;points=[];autosize=1;strokeColor=none;fillColor=none;fontSize=16;" vertex="1" parent="1">
          <mxGeometry x="95" y="295" width="60" height="30" as="geometry" />
        </mxCell>
        <mxCell id="mj_Q1BmfQWoBCq-6HT56-9" value="" style="rounded=0;whiteSpace=wrap;html=1;fillColor=#cdeb8b;strokeColor=#36393d;fontSize=16;" vertex="1" parent="1">
          <mxGeometry x="200" y="390" width="640" height="330" as="geometry" />
        </mxCell>
        <mxCell id="mj_Q1BmfQWoBCq-6HT56-10" value="&lt;font style=&quot;vertical-align: inherit;&quot; class=&quot;notranslate fyzs-translate-target fyzs-translate-target-wrapper&quot;&gt;&lt;font style=&quot;vertical-align: inherit;&quot; class=&quot;notranslate fyzs-translate-target fyzs-translate-target-box&quot;&gt;&lt;font style=&quot;vertical-align: inherit;&quot; title=&quot;y&quot; class=&quot;notranslate fyzs-translate-target fyzs-translate-target-text&quot;&gt;业务系统集群&lt;/font&gt;&lt;/font&gt;&lt;/font&gt;&lt;div&gt;&lt;font style=&quot;vertical-align: inherit;&quot; class=&quot;notranslate fyzs-translate-target fyzs-translate-target-wrapper&quot;&gt;&lt;font style=&quot;vertical-align: inherit;&quot; class=&quot;notranslate fyzs-translate-target fyzs-translate-target-box&quot;&gt;&lt;font style=&quot;vertical-align: inherit;&quot; title=&quot;J&quot; class=&quot;notranslate fyzs-translate-target fyzs-translate-target-text&quot;&gt;JDK21+Springboot3.x+mybatisPlus&lt;/font&gt;&lt;/font&gt;&lt;/font&gt;&lt;/div&gt;" style="rounded=0;whiteSpace=wrap;html=1;fillColor=#fff2cc;strokeColor=#d6b656;fontSize=16;" vertex="1" parent="1">
          <mxGeometry x="365" y="410" width="295" height="130" as="geometry" />
        </mxCell>
        <mxCell id="mj_Q1BmfQWoBCq-6HT56-11" value="&lt;font style=&quot;vertical-align: inherit;&quot; class=&quot;notranslate fyzs-translate-target fyzs-translate-target-wrapper&quot;&gt;&lt;font style=&quot;vertical-align: inherit;&quot; class=&quot;notranslate fyzs-translate-target fyzs-translate-target-box&quot;&gt;&lt;font style=&quot;vertical-align: inherit;&quot; title=&quot;A&quot; class=&quot;notranslate fyzs-translate-target fyzs-translate-target-text&quot;&gt;AI模型服务&lt;/font&gt;&lt;/font&gt;&lt;/font&gt;&lt;div&gt;&lt;font style=&quot;vertical-align: inherit;&quot; class=&quot;notranslate fyzs-translate-target fyzs-translate-target-wrapper&quot;&gt;&lt;font style=&quot;vertical-align: inherit;&quot; class=&quot;notranslate fyzs-translate-target fyzs-translate-target-box&quot;&gt;&lt;font style=&quot;vertical-align: inherit;&quot; title=&quot;A&quot; class=&quot;notranslate fyzs-translate-target fyzs-translate-target-text&quot;&gt;FastAPI+LangChain&lt;/font&gt;&lt;/font&gt;&lt;/font&gt;&lt;/div&gt;" style="rounded=0;whiteSpace=wrap;html=1;fillColor=#fff2cc;strokeColor=#d6b656;fontSize=16;" vertex="1" parent="1">
          <mxGeometry x="365" y="570" width="295" height="130" as="geometry" />
        </mxCell>
        <mxCell id="mj_Q1BmfQWoBCq-6HT56-12" value="&lt;font style=&quot;vertical-align: inherit;&quot; class=&quot;notranslate fyzs-translate-target fyzs-translate-target-wrapper&quot;&gt;&lt;font style=&quot;vertical-align: inherit;&quot; class=&quot;notranslate fyzs-translate-target fyzs-translate-target-box&quot;&gt;&lt;font style=&quot;vertical-align: inherit;&quot; title=&quot;Text&quot; class=&quot;notranslate fyzs-translate-target fyzs-translate-target-text&quot;&gt;业务层&lt;/font&gt;&lt;/font&gt;&lt;/font&gt;" style="text;html=1;align=center;verticalAlign=middle;resizable=0;points=[];autosize=1;strokeColor=none;fillColor=none;fontSize=16;" vertex="1" parent="1">
          <mxGeometry x="90" y="398" width="70" height="30" as="geometry" />
        </mxCell>
        <mxCell id="mj_Q1BmfQWoBCq-6HT56-13" value="" style="rounded=0;whiteSpace=wrap;html=1;fillColor=#fff2cc;strokeColor=#d6b656;fontSize=16;" vertex="1" parent="1">
          <mxGeometry x="200" y="750" width="640" height="140" as="geometry" />
        </mxCell>
        <mxCell id="mj_Q1BmfQWoBCq-6HT56-14" value="&lt;font style=&quot;vertical-align: inherit;&quot; class=&quot;notranslate fyzs-translate-target fyzs-translate-target-wrapper&quot;&gt;&lt;font style=&quot;vertical-align: inherit;&quot; class=&quot;notranslate fyzs-translate-target fyzs-translate-target-box&quot;&gt;&lt;font style=&quot;vertical-align: inherit;&quot; title=&quot;d&quot; class=&quot;notranslate fyzs-translate-target fyzs-translate-target-text&quot;&gt;队列&lt;/font&gt;&lt;/font&gt;&lt;/font&gt;&lt;div&gt;&lt;font style=&quot;vertical-align: inherit;&quot; class=&quot;notranslate fyzs-translate-target fyzs-translate-target-wrapper&quot;&gt;&lt;font style=&quot;vertical-align: inherit;&quot; class=&quot;notranslate fyzs-translate-target fyzs-translate-target-box&quot;&gt;&lt;font style=&quot;vertical-align: inherit;&quot; title=&quot;d&quot; class=&quot;notranslate fyzs-translate-target fyzs-translate-target-text&quot;&gt;Kafka&lt;/font&gt;&lt;/font&gt;&lt;/font&gt;&lt;/div&gt;" style="rounded=0;whiteSpace=wrap;html=1;fillColor=#fff2cc;strokeColor=#d6b656;fontSize=16;" vertex="1" parent="1">
          <mxGeometry x="220" y="770" width="90" height="100" as="geometry" />
        </mxCell>
        <mxCell id="mj_Q1BmfQWoBCq-6HT56-15" value="&lt;font style=&quot;vertical-align: inherit;&quot; class=&quot;notranslate fyzs-translate-target fyzs-translate-target-wrapper&quot;&gt;&lt;font style=&quot;vertical-align: inherit;&quot; class=&quot;notranslate fyzs-translate-target fyzs-translate-target-box&quot;&gt;&lt;font style=&quot;vertical-align: inherit;&quot; title=&quot;h&quot; class=&quot;notranslate fyzs-translate-target fyzs-translate-target-text&quot;&gt;缓存&lt;/font&gt;&lt;/font&gt;&lt;/font&gt;&lt;div&gt;&lt;font style=&quot;vertical-align: inherit;&quot; class=&quot;notranslate fyzs-translate-target fyzs-translate-target-wrapper&quot;&gt;&lt;font style=&quot;vertical-align: inherit;&quot; class=&quot;notranslate fyzs-translate-target fyzs-translate-target-box&quot;&gt;&lt;font style=&quot;vertical-align: inherit;&quot; title=&quot;h&quot; class=&quot;notranslate fyzs-translate-target fyzs-translate-target-text&quot;&gt;Redis&lt;/font&gt;&lt;/font&gt;&lt;/font&gt;&lt;/div&gt;" style="rounded=0;whiteSpace=wrap;html=1;fillColor=#fff2cc;strokeColor=#d6b656;fontSize=16;" vertex="1" parent="1">
          <mxGeometry x="324" y="770" width="90" height="100" as="geometry" />
        </mxCell>
        <mxCell id="mj_Q1BmfQWoBCq-6HT56-16" value="&lt;font style=&quot;vertical-align: inherit;&quot; class=&quot;notranslate fyzs-translate-target fyzs-translate-target-wrapper&quot;&gt;&lt;font style=&quot;vertical-align: inherit;&quot; class=&quot;notranslate fyzs-translate-target fyzs-translate-target-box&quot;&gt;&lt;font style=&quot;vertical-align: inherit;&quot; title=&quot;f&quot; class=&quot;notranslate fyzs-translate-target fyzs-translate-target-text&quot;&gt;关系型数据库&lt;/font&gt;&lt;/font&gt;&lt;/font&gt;&lt;div&gt;&lt;font style=&quot;vertical-align: inherit;&quot; class=&quot;notranslate fyzs-translate-target fyzs-translate-target-wrapper&quot;&gt;&lt;font style=&quot;vertical-align: inherit;&quot; class=&quot;notranslate fyzs-translate-target fyzs-translate-target-box&quot;&gt;&lt;font style=&quot;vertical-align: inherit;&quot; title=&quot;f&quot; class=&quot;notranslate fyzs-translate-target fyzs-translate-target-text&quot;&gt;Mysql&lt;/font&gt;&lt;/font&gt;&lt;/font&gt;&lt;/div&gt;" style="rounded=0;whiteSpace=wrap;html=1;fillColor=#fff2cc;strokeColor=#d6b656;fontSize=16;" vertex="1" parent="1">
          <mxGeometry x="435" y="770" width="90" height="100" as="geometry" />
        </mxCell>
        <mxCell id="mj_Q1BmfQWoBCq-6HT56-17" value="&lt;font style=&quot;vertical-align: inherit;&quot; class=&quot;notranslate fyzs-translate-target fyzs-translate-target-wrapper&quot;&gt;&lt;font style=&quot;vertical-align: inherit;&quot; class=&quot;notranslate fyzs-translate-target fyzs-translate-target-box&quot;&gt;&lt;font style=&quot;vertical-align: inherit;&quot; title=&quot;x&quot; class=&quot;notranslate fyzs-translate-target fyzs-translate-target-text&quot;&gt;向量数据库&lt;/font&gt;&lt;/font&gt;&lt;/font&gt;&lt;div&gt;&lt;font style=&quot;vertical-align: inherit;&quot; class=&quot;notranslate fyzs-translate-target fyzs-translate-target-wrapper&quot;&gt;&lt;font style=&quot;vertical-align: inherit;&quot; class=&quot;notranslate fyzs-translate-target fyzs-translate-target-box&quot;&gt;&lt;font style=&quot;vertical-align: inherit;&quot; title=&quot;x&quot; class=&quot;notranslate fyzs-translate-target fyzs-translate-target-text&quot;&gt;Milvus&lt;/font&gt;&lt;/font&gt;&lt;/font&gt;&lt;/div&gt;" style="rounded=0;whiteSpace=wrap;html=1;fillColor=#fff2cc;strokeColor=#d6b656;fontSize=16;" vertex="1" parent="1">
          <mxGeometry x="540" y="770" width="90" height="100" as="geometry" />
        </mxCell>
        <mxCell id="mj_Q1BmfQWoBCq-6HT56-18" value="&lt;font style=&quot;vertical-align: inherit;&quot; class=&quot;notranslate fyzs-translate-target fyzs-translate-target-wrapper&quot;&gt;&lt;font style=&quot;vertical-align: inherit;&quot; class=&quot;notranslate fyzs-translate-target fyzs-translate-target-box&quot;&gt;&lt;font style=&quot;vertical-align: inherit;&quot; title=&quot;w&quot; class=&quot;notranslate fyzs-translate-target fyzs-translate-target-text&quot;&gt;文件存储&lt;/font&gt;&lt;/font&gt;&lt;/font&gt;&lt;div&gt;&lt;font style=&quot;vertical-align: inherit;&quot; class=&quot;notranslate fyzs-translate-target fyzs-translate-target-wrapper&quot;&gt;&lt;font style=&quot;vertical-align: inherit;&quot; class=&quot;notranslate fyzs-translate-target fyzs-translate-target-box&quot;&gt;&lt;font style=&quot;vertical-align: inherit;&quot; title=&quot;w&quot; class=&quot;notranslate fyzs-translate-target fyzs-translate-target-text&quot;&gt;Minio&lt;/font&gt;&lt;/font&gt;&lt;/font&gt;&lt;/div&gt;" style="rounded=0;whiteSpace=wrap;html=1;fillColor=#fff2cc;strokeColor=#d6b656;fontSize=16;" vertex="1" parent="1">
          <mxGeometry x="640" y="770" width="90" height="100" as="geometry" />
        </mxCell>
        <mxCell id="mj_Q1BmfQWoBCq-6HT56-19" value="&lt;font style=&quot;vertical-align: inherit;&quot; class=&quot;notranslate fyzs-translate-target fyzs-translate-target-wrapper&quot;&gt;&lt;font style=&quot;vertical-align: inherit;&quot; class=&quot;notranslate fyzs-translate-target fyzs-translate-target-box&quot;&gt;&lt;font style=&quot;vertical-align: inherit;&quot; title=&quot;d&quot; class=&quot;notranslate fyzs-translate-target fyzs-translate-target-text&quot;&gt;大模型&lt;/font&gt;&lt;/font&gt;&lt;/font&gt;&lt;div&gt;&lt;font style=&quot;vertical-align: inherit;&quot; class=&quot;notranslate fyzs-translate-target fyzs-translate-target-wrapper&quot;&gt;&lt;font style=&quot;vertical-align: inherit;&quot; class=&quot;notranslate fyzs-translate-target fyzs-translate-target-box&quot;&gt;&lt;font style=&quot;vertical-align: inherit;&quot; title=&quot;d&quot; class=&quot;notranslate fyzs-translate-target fyzs-translate-target-text&quot;&gt;ChatGLM&lt;/font&gt;&lt;/font&gt;&lt;/font&gt;&lt;/div&gt;&lt;div&gt;&lt;font style=&quot;vertical-align: inherit;&quot; class=&quot;notranslate fyzs-translate-target fyzs-translate-target-wrapper&quot;&gt;&lt;font style=&quot;vertical-align: inherit;&quot; class=&quot;notranslate fyzs-translate-target fyzs-translate-target-box&quot;&gt;&lt;font style=&quot;vertical-align: inherit;&quot; title=&quot;t&quot; class=&quot;notranslate fyzs-translate-target fyzs-translate-target-text&quot;&gt;通译/GPT&lt;/font&gt;&lt;/font&gt;&lt;/font&gt;&lt;/div&gt;" style="rounded=0;whiteSpace=wrap;html=1;fillColor=#fff2cc;strokeColor=#d6b656;fontSize=16;" vertex="1" parent="1">
          <mxGeometry x="740" y="770" width="90" height="100" as="geometry" />
        </mxCell>
        <mxCell id="mj_Q1BmfQWoBCq-6HT56-20" value="" style="rounded=0;whiteSpace=wrap;html=1;fillColor=#fff2cc;strokeColor=#d6b656;fontSize=16;" vertex="1" parent="1">
          <mxGeometry x="200" y="940" width="640" height="110" as="geometry" />
        </mxCell>
        <mxCell id="mj_Q1BmfQWoBCq-6HT56-21" value="&lt;font style=&quot;vertical-align: inherit;&quot; class=&quot;notranslate fyzs-translate-target fyzs-translate-target-wrapper&quot;&gt;&lt;font style=&quot;vertical-align: inherit;&quot; class=&quot;notranslate fyzs-translate-target fyzs-translate-target-box&quot;&gt;&lt;font style=&quot;vertical-align: inherit;&quot; title=&quot;Text&quot; class=&quot;notranslate fyzs-translate-target fyzs-translate-target-text&quot;&gt;数据层&lt;/font&gt;&lt;/font&gt;&lt;/font&gt;" style="text;html=1;align=center;verticalAlign=middle;resizable=0;points=[];autosize=1;strokeColor=none;fillColor=none;fontSize=16;" vertex="1" parent="1">
          <mxGeometry x="115" y="808" width="70" height="30" as="geometry" />
        </mxCell>
        <mxCell id="mj_Q1BmfQWoBCq-6HT56-22" value="&lt;font style=&quot;vertical-align: inherit;&quot; class=&quot;notranslate fyzs-translate-target fyzs-translate-target-wrapper&quot;&gt;&lt;font style=&quot;vertical-align: inherit;&quot; class=&quot;notranslate fyzs-translate-target fyzs-translate-target-box&quot;&gt;&lt;font style=&quot;vertical-align: inherit;&quot; title=&quot;Text&quot; class=&quot;notranslate fyzs-translate-target fyzs-translate-target-text&quot;&gt;资源层&lt;/font&gt;&lt;/font&gt;&lt;/font&gt;" style="text;html=1;align=center;verticalAlign=middle;resizable=0;points=[];autosize=1;strokeColor=none;fillColor=none;fontSize=16;" vertex="1" parent="1">
          <mxGeometry x="115" y="980" width="70" height="30" as="geometry" />
        </mxCell>
        <mxCell id="mj_Q1BmfQWoBCq-6HT56-23" value="&lt;font style=&quot;vertical-align: inherit;&quot; class=&quot;notranslate fyzs-translate-target fyzs-translate-target-wrapper&quot;&gt;&lt;font style=&quot;vertical-align: inherit;&quot; class=&quot;notranslate fyzs-translate-target fyzs-translate-target-box&quot;&gt;&lt;font style=&quot;vertical-align: inherit;&quot; title=&quot;a&quot; class=&quot;notranslate fyzs-translate-target fyzs-translate-target-text&quot;&gt;阿里云主机&lt;/font&gt;&lt;/font&gt;&lt;/font&gt;" style="rounded=0;whiteSpace=wrap;html=1;fillColor=#fff2cc;strokeColor=#d6b656;fontSize=16;" vertex="1" parent="1">
          <mxGeometry x="220" y="960" width="120" height="60" as="geometry" />
        </mxCell>
        <mxCell id="mj_Q1BmfQWoBCq-6HT56-24" value="&lt;font style=&quot;vertical-align: inherit;&quot; class=&quot;notranslate fyzs-translate-target fyzs-translate-target-wrapper&quot;&gt;&lt;font style=&quot;vertical-align: inherit;&quot; class=&quot;notranslate fyzs-translate-target fyzs-translate-target-box&quot;&gt;&lt;font style=&quot;vertical-align: inherit;&quot; title=&quot;w&quot; class=&quot;notranslate fyzs-translate-target fyzs-translate-target-text&quot;&gt;网络&lt;/font&gt;&lt;/font&gt;&lt;/font&gt;" style="rounded=0;whiteSpace=wrap;html=1;fillColor=#fff2cc;strokeColor=#d6b656;fontSize=16;" vertex="1" parent="1">
          <mxGeometry x="380" y="960" width="120" height="60" as="geometry" />
        </mxCell>
        <mxCell id="mj_Q1BmfQWoBCq-6HT56-25" value="&lt;font style=&quot;vertical-align: inherit;&quot; class=&quot;notranslate fyzs-translate-target fyzs-translate-target-wrapper&quot;&gt;&lt;font style=&quot;vertical-align: inherit;&quot; class=&quot;notranslate fyzs-translate-target fyzs-translate-target-box&quot;&gt;&lt;font style=&quot;vertical-align: inherit;&quot; title=&quot;w&quot; class=&quot;notranslate fyzs-translate-target fyzs-translate-target-text&quot;&gt;域名&lt;/font&gt;&lt;/font&gt;&lt;/font&gt;" style="rounded=0;whiteSpace=wrap;html=1;fillColor=#fff2cc;strokeColor=#d6b656;fontSize=16;" vertex="1" parent="1">
          <mxGeometry x="525" y="960" width="120" height="60" as="geometry" />
        </mxCell>
        <mxCell id="mj_Q1BmfQWoBCq-6HT56-26" value="&lt;font style=&quot;vertical-align: inherit;&quot; class=&quot;notranslate fyzs-translate-target fyzs-translate-target-wrapper&quot;&gt;&lt;font style=&quot;vertical-align: inherit;&quot; class=&quot;notranslate fyzs-translate-target fyzs-translate-target-box&quot;&gt;&lt;font style=&quot;vertical-align: inherit;&quot; title=&quot;w&quot; class=&quot;notranslate fyzs-translate-target fyzs-translate-target-text&quot;&gt;资源编排&lt;/font&gt;&lt;/font&gt;&lt;/font&gt;" style="rounded=0;whiteSpace=wrap;html=1;fillColor=#fff2cc;strokeColor=#d6b656;fontSize=16;" vertex="1" parent="1">
          <mxGeometry x="670" y="960" width="120" height="60" as="geometry" />
        </mxCell>
        <mxCell id="mj_Q1BmfQWoBCq-6HT56-27" value="" style="rounded=0;whiteSpace=wrap;html=1;fillColor=#fff2cc;strokeColor=#d6b656;fontSize=16;" vertex="1" parent="1">
          <mxGeometry x="900" y="120" width="120" height="930" as="geometry" />
        </mxCell>
        <mxCell id="mj_Q1BmfQWoBCq-6HT56-28" value="&lt;font style=&quot;vertical-align: inherit;&quot; class=&quot;notranslate fyzs-translate-target fyzs-translate-target-wrapper&quot;&gt;&lt;font style=&quot;vertical-align: inherit;&quot; class=&quot;notranslate fyzs-translate-target fyzs-translate-target-box&quot;&gt;&lt;font style=&quot;vertical-align: inherit;&quot; title=&quot;j&quot; class=&quot;notranslate fyzs-translate-target fyzs-translate-target-text&quot;&gt;监控告警&lt;/font&gt;&lt;/font&gt;&lt;/font&gt;&lt;div&gt;&lt;font style=&quot;vertical-align: inherit;&quot; class=&quot;notranslate fyzs-translate-target fyzs-translate-target-wrapper&quot;&gt;&lt;font style=&quot;vertical-align: inherit;&quot; class=&quot;notranslate fyzs-translate-target fyzs-translate-target-box&quot;&gt;&lt;font style=&quot;vertical-align: inherit;&quot; title=&quot;j&quot; class=&quot;notranslate fyzs-translate-target fyzs-translate-target-text&quot;&gt;Prometheus&lt;/font&gt;&lt;/font&gt;&lt;/font&gt;&lt;/div&gt;" style="rounded=0;whiteSpace=wrap;html=1;fillColor=#fff2cc;strokeColor=#d6b656;fontSize=16;" vertex="1" parent="1">
          <mxGeometry x="910" y="180" width="100" height="140" as="geometry" />
        </mxCell>
        <mxCell id="mj_Q1BmfQWoBCq-6HT56-29" value="&lt;font style=&quot;vertical-align: inherit;&quot; class=&quot;notranslate fyzs-translate-target fyzs-translate-target-wrapper&quot;&gt;&lt;font style=&quot;vertical-align: inherit;&quot; class=&quot;notranslate fyzs-translate-target fyzs-translate-target-box&quot;&gt;&lt;font style=&quot;vertical-align: inherit;&quot; title=&quot;r&quot; class=&quot;notranslate fyzs-translate-target fyzs-translate-target-text&quot;&gt;日志服务&lt;/font&gt;&lt;/font&gt;&lt;/font&gt;&lt;div&gt;&lt;font style=&quot;vertical-align: inherit;&quot; class=&quot;notranslate fyzs-translate-target fyzs-translate-target-wrapper&quot;&gt;&lt;font style=&quot;vertical-align: inherit;&quot; class=&quot;notranslate fyzs-translate-target fyzs-translate-target-box&quot;&gt;&lt;font style=&quot;vertical-align: inherit;&quot; title=&quot;r&quot; class=&quot;notranslate fyzs-translate-target fyzs-translate-target-text&quot;&gt;ELK&lt;/font&gt;&lt;/font&gt;&lt;/font&gt;&lt;/div&gt;" style="rounded=0;whiteSpace=wrap;html=1;fillColor=#fff2cc;strokeColor=#d6b656;fontSize=16;" vertex="1" parent="1">
          <mxGeometry x="910" y="343" width="100" height="140" as="geometry" />
        </mxCell>
        <mxCell id="mj_Q1BmfQWoBCq-6HT56-30" value="&lt;font style=&quot;vertical-align: inherit;&quot; class=&quot;notranslate fyzs-translate-target fyzs-translate-target-wrapper&quot;&gt;&lt;font style=&quot;vertical-align: inherit;&quot; class=&quot;notranslate fyzs-translate-target fyzs-translate-target-box&quot;&gt;&lt;font style=&quot;vertical-align: inherit;&quot; title=&quot;d&quot; class=&quot;notranslate fyzs-translate-target fyzs-translate-target-text&quot;&gt;调度中心&lt;/font&gt;&lt;/font&gt;&lt;/font&gt;&lt;div&gt;&lt;font style=&quot;vertical-align: inherit;&quot; class=&quot;notranslate fyzs-translate-target fyzs-translate-target-wrapper&quot;&gt;&lt;font style=&quot;vertical-align: inherit;&quot; class=&quot;notranslate fyzs-translate-target fyzs-translate-target-box&quot;&gt;&lt;font style=&quot;vertical-align: inherit;&quot; title=&quot;d&quot; class=&quot;notranslate fyzs-translate-target fyzs-translate-target-text&quot;&gt;XXL-job&lt;/font&gt;&lt;/font&gt;&lt;/font&gt;&lt;/div&gt;" style="rounded=0;whiteSpace=wrap;html=1;fillColor=#fff2cc;strokeColor=#d6b656;fontSize=16;" vertex="1" parent="1">
          <mxGeometry x="910" y="500" width="100" height="140" as="geometry" />
        </mxCell>
        <mxCell id="mj_Q1BmfQWoBCq-6HT56-31" value="&lt;font style=&quot;vertical-align: inherit;&quot; class=&quot;notranslate fyzs-translate-target fyzs-translate-target-wrapper&quot;&gt;&lt;font style=&quot;vertical-align: inherit;&quot; class=&quot;notranslate fyzs-translate-target fyzs-translate-target-box&quot;&gt;&lt;font style=&quot;vertical-align: inherit;&quot; title=&quot;d&quot; class=&quot;notranslate fyzs-translate-target fyzs-translate-target-text&quot;&gt;大模型调试&lt;/font&gt;&lt;/font&gt;&lt;/font&gt;&lt;div&gt;&lt;font style=&quot;vertical-align: inherit;&quot; class=&quot;notranslate fyzs-translate-target fyzs-translate-target-wrapper&quot;&gt;&lt;font style=&quot;vertical-align: inherit;&quot; class=&quot;notranslate fyzs-translate-target fyzs-translate-target-box&quot;&gt;&lt;font style=&quot;vertical-align: inherit;&quot; title=&quot;d&quot; class=&quot;notranslate fyzs-translate-target fyzs-translate-target-text&quot;&gt;LangSmith&lt;/font&gt;&lt;/font&gt;&lt;/font&gt;&lt;/div&gt;" style="rounded=0;whiteSpace=wrap;html=1;fillColor=#fff2cc;strokeColor=#d6b656;fontSize=16;" vertex="1" parent="1">
          <mxGeometry x="910" y="660" width="100" height="140" as="geometry" />
        </mxCell>
        <mxCell id="mj_Q1BmfQWoBCq-6HT56-32" value="&lt;font style=&quot;vertical-align: inherit;&quot; class=&quot;notranslate fyzs-translate-target fyzs-translate-target-wrapper&quot;&gt;&lt;font style=&quot;vertical-align: inherit;&quot; class=&quot;notranslate fyzs-translate-target fyzs-translate-target-box&quot;&gt;&lt;font style=&quot;vertical-align: inherit;&quot; title=&quot;D&quot; class=&quot;notranslate fyzs-translate-target fyzs-translate-target-text&quot;&gt;DevOps&lt;/font&gt;&lt;/font&gt;&lt;/font&gt;&lt;div&gt;&lt;font style=&quot;vertical-align: inherit;&quot; class=&quot;notranslate fyzs-translate-target fyzs-translate-target-wrapper&quot;&gt;&lt;font style=&quot;vertical-align: inherit;&quot; class=&quot;notranslate fyzs-translate-target fyzs-translate-target-box&quot;&gt;&lt;font style=&quot;vertical-align: inherit;&quot; title=&quot;D&quot; class=&quot;notranslate fyzs-translate-target fyzs-translate-target-text&quot;&gt;平台&lt;/font&gt;&lt;/font&gt;&lt;/font&gt;&lt;/div&gt;&lt;div&gt;&lt;font style=&quot;vertical-align: inherit;&quot; class=&quot;notranslate fyzs-translate-target fyzs-translate-target-wrapper&quot;&gt;&lt;font style=&quot;vertical-align: inherit;&quot; class=&quot;notranslate fyzs-translate-target fyzs-translate-target-box&quot;&gt;&lt;font style=&quot;vertical-align: inherit;&quot; title=&quot;D&quot; class=&quot;notranslate fyzs-translate-target fyzs-translate-target-text&quot;&gt;Jenkins&lt;/font&gt;&lt;/font&gt;&lt;/font&gt;&lt;/div&gt;&lt;div&gt;&lt;font style=&quot;vertical-align: inherit;&quot; class=&quot;notranslate fyzs-translate-target fyzs-translate-target-wrapper&quot;&gt;&lt;font style=&quot;vertical-align: inherit;&quot; class=&quot;notranslate fyzs-translate-target fyzs-translate-target-box&quot;&gt;&lt;font style=&quot;vertical-align: inherit;&quot; title=&quot;D&quot; class=&quot;notranslate fyzs-translate-target fyzs-translate-target-text&quot;&gt;git+DOcker&lt;/font&gt;&lt;/font&gt;&lt;/font&gt;&lt;/div&gt;" style="rounded=0;whiteSpace=wrap;html=1;fillColor=#fff2cc;strokeColor=#d6b656;fontSize=16;" vertex="1" parent="1">
          <mxGeometry x="910" y="820" width="100" height="140" as="geometry" />
        </mxCell>
      </root>
    </mxGraphModel>
  </diagram>
</mxfile>
